<svg xmlns="http://www.w3.org/2000/svg" xmlns:xlink="http://www.w3.org/1999/xlink" viewBox="0 0 158.758 30.394" fill="currentColor">
  <g id="Group_3" data-name="Group 3" transform="translate(0 0)">
    <path id="Path_1" data-name="Path 1" d="M.209,33.034,12.848,21.786,0,10.3Z" transform="translate(0 -3.865)"/>
    <g id="Group_2" data-name="Group 2" transform="translate(0 0)">
      <g id="Group_1" data-name="Group 1" clip-path="url(#logo-clip-path)">
        <path id="Path_2" data-name="Path 2" d="M42.418,11.757a10.722,10.722,0,0,1,2.533,7.556V33.427H37.593V20.309a5.31,5.31,0,0,0-1.255-3.767A4.411,4.411,0,0,0,32.96,15.2a4.41,4.41,0,0,0-3.379,1.343,5.3,5.3,0,0,0-1.255,3.767V33.427h-7.4V9.267h7.4v3.2A7.822,7.822,0,0,1,31.357,9.94a9.648,9.648,0,0,1,4.286-.931,8.765,8.765,0,0,1,6.775,2.748" transform="translate(-7.848 -3.379)"/>
        <path id="Path_3" data-name="Path 3" d="M89.376,23.071H72.622a5.016,5.016,0,0,0,1.45,3.44A4.423,4.423,0,0,0,77.21,27.7a3.894,3.894,0,0,0,3.854-2.338h7.878a10.832,10.832,0,0,1-2.185,4.286A10.944,10.944,0,0,1,82.8,32.638a12.709,12.709,0,0,1-5.325,1.082,12.961,12.961,0,0,1-6.322-1.514,10.8,10.8,0,0,1-4.33-4.33,13.369,13.369,0,0,1-1.558-6.58A13.508,13.508,0,0,1,66.8,14.715a10.631,10.631,0,0,1,4.306-4.33,13.056,13.056,0,0,1,6.366-1.516,12.912,12.912,0,0,1,6.234,1.472,10.574,10.574,0,0,1,4.264,4.2,12.748,12.748,0,0,1,1.536,6.363,18.585,18.585,0,0,1-.129,2.165M81.93,18.957a3.806,3.806,0,0,0-1.3-3.031A4.779,4.779,0,0,0,77.384,14.8a4.692,4.692,0,0,0-3.138,1.082,4.8,4.8,0,0,0-1.58,3.075Z" transform="translate(-24.479 -3.327)"/>
        <path id="Path_4" data-name="Path 4" d="M123.1,33.582l-4.632-6.71-3.9,6.71h-8.009l7.965-12.339L106.348,9.423h8.312l4.632,6.668,3.9-6.668H131.2l-8.1,12.166,8.312,11.993Z" transform="translate(-39.89 -3.534)"/>
        <path id="Path_5" data-name="Path 5" d="M149.946,12.037V0h7.4V5.888h7.093v6.149h-7.093l-.022,11.732h7.16v6.278h-6.011a9.213,9.213,0,0,1-6.278-1.97q-2.252-1.968-2.253-6.429Z" transform="translate(-56.244 0)"/>
        <path id="Path_6" data-name="Path 6" d="M178.21,14.715a10.491,10.491,0,0,1,3.833-4.33,10,10,0,0,1,5.412-1.517,9.266,9.266,0,0,1,4.479,1.041,7.662,7.662,0,0,1,2.967,2.726V9.214h7.4v24.16h-7.4V29.953a8.013,8.013,0,0,1-3.009,2.728,9.306,9.306,0,0,1-4.481,1.039,9.831,9.831,0,0,1-5.369-1.536,10.623,10.623,0,0,1-3.833-4.374,14.565,14.565,0,0,1-1.407-6.558,14.431,14.431,0,0,1,1.407-6.537m15.153,2.207a5.2,5.2,0,0,0-7.49-.022,5.985,5.985,0,0,0-1.536,4.352,6.136,6.136,0,0,0,1.536,4.394,5.155,5.155,0,0,0,7.49.022,6.047,6.047,0,0,0,1.539-4.372,6.055,6.055,0,0,0-1.539-4.374" transform="translate(-66.318 -3.326)"/>
        <path id="Path_7" data-name="Path 7" d="M232.321,27.476H242.8v6.1H224.051V27.693L234.1,15.527h-9.957v-6.1h18.444V15.31Z" transform="translate(-84.04 -3.534)"/>
      </g>
    </g>
  </g>
  <defs>
    <clipPath id="logo-clip-path">
      <rect width="158.758" height="30.394" fill="none"/>
    </clipPath>
  </defs>
</svg>